<svg xmlns="http://www.w3.org/2000/svg" viewBox="0 0 40.58 46.81"><defs><style>.cls-1{fill:#8fd4e1;}.cls-2{fill:#14a4c4;}.cls-3{fill:#1977ad;}.cls-4{fill:#33a4ca;}</style></defs><g id="Layer_2" data-name="Layer 2"><g id="Layer_1-2" data-name="Layer 1"><path class="cls-1" d="M18,46.74,0,35.13.24,15.25,18.59,46.18A.41.41,0,0,1,18,46.74Z"/><path class="cls-2" d="M2.35,11.73l16-11.2a3.43,3.43,0,0,1,3.81.1l13,9.19Z"/><path class="cls-3" d="M0,35.13.29,13.29a2.65,2.65,0,0,1,1.24-2.21L17.22,1.24Z"/><polygon class="cls-1" points="21.57 0.35 40.58 13.6 39.62 33.46 21.57 0.35"/><polygon class="cls-3" points="40.58 13.6 39.43 36.86 22.2 46.11 40.58 13.6"/><path class="cls-4" d="M27.45,29.11l-6.53,3.75a1.44,1.44,0,0,1-1.5,0L15,30Z"/><path class="cls-1" d="M19.62,33l-6.57-4.24.09-7.25,6.69,11.28A.15.15,0,0,1,19.62,33Z"/><path class="cls-2" d="M13.16,20.23l6.59-4.13a1.24,1.24,0,0,1,1.39,0l4.73,3.35Z"/><path class="cls-3" d="M13.05,28.72l.1-8a1,1,0,0,1,.46-.8l5.72-3.59Z"/><polygon class="cls-1" points="20.92 16.03 27.85 20.87 27.5 28.11 20.92 16.03"/><polygon class="cls-3" points="27.85 20.87 27.43 29.35 21.15 32.73 27.85 20.87"/></g></g></svg>